 http://img96.imageshack.us/img96/7900/t2ec16jyse9sy0hpzbq4z4m.jpg


 
http://www.imdb.com/title/tt1948521/

Source: Bluray Disc

Quote:
Format                                   : Matroska
Format version                           : Version 2
File size                                : 1.28 GiB
Duration                                 : 1h 25mn
Overall bit rate                         : 2 143 Kbps


Video
ID                                       : 1
Format                                   : AVC
Format/Info                              : Advanced Video Codec
Format profile                           : Main@L3.0
Format settings, CABAC                   : Yes
Format settings, ReFrames                : 4 frames
Codec ID                                 : V_MPEG4/ISO/AVC
Duration                                 : 1h 25mn
Bit rate                                 : 1 500 Kbps
Width                                    : 720 pixels
Height                                   : 400 pixels
Display aspect ratio                     : 16:9
Frame rate mode                          : Constant
Frame rate                               : 23.976 fps
Color space                              : YUV
Chroma subsampling                       : 4:2:0
Bit depth                                : 8 bits
Scan type                                : Progressive
Bits/(Pixel*Frame)                       : 0.217
Stream size                              : 891 MiB (68%)
Language                                 : English
Default                                  : Yes
Forced                                   : No
Color primaries                          : BT.709
Transfer characteristics                 : BT.709
Matrix coefficients                      : BT.709

Audio
ID                                       : 2
Format                                   : AC-3
Format/Info                              : Audio Coding 3
Mode extension                           : CM (complete main)
Format settings, Endianness              : Big
Codec ID                                 : A_AC3
Duration                                 : 1h 25mn
Bit rate mode                            : Constant
Bit rate                                 : 640 Kbps
Channel(s)                               : 6 channels
Channel positions                        : Front: L C R, Side: L R, LFE
Sampling rate                            : 48.0 KHz
Bit depth                                : 16 bits
Compression mode                         : Lossy
Stream size                              : 391 MiB (30%)
Language                                 : English
Default                                  : Yes
Forced                                   : No


 
http://img18.imageshack.us/img18/2385/66203193.png 
http://img69.imageshack.us/img69/145/99765644.png 
http://img24.imageshack.us/img24/7695/21759556.png 
http://img818.imageshack.us/img818/9397/55121301.png